<svg xmlns="http://www.w3.org/2000/svg" viewBox="258 150 299.96 313">
 <defs>
  <linearGradient gradientTransform="matrix(1,0,0,0.9072463512420654,257.9998474121094,150.00001525878906)" gradientUnits="userSpaceOnUse" y2="186.29" x2="150" y1="381.25" x1="150" id="svg_2">
   <stop stop-color="#c88b4b" offset="0.1"/>
   <stop stop-color="#af6d2f" offset="0.3"/>
  </linearGradient>
 </defs>
 <g>
  <title>Layer 1</title>

  <path fill="url(#svg_2)" d="m501.65985,463l-187.32,0a36.38,33.00562 0 0 1 -36.34,-33.00562l0,-44.89055l260,0l0,44.89055a36.38,33.00562 0 0 1 -36.34,33.00562z" class="cls-1"/>
  <path fill="#eab371" d="m314.42985,439.12128a29.5,26.76377 0 0 1 -29.43,-26.73655l0,-122.62342a46,41.73333 0 0 0 -7.35,-22.68116a79.79,72.38919 0 0 1 9.15,-88.82849a78.33,71.06461 0 0 1 57.13,-21.90093c1.68,0 3.38,0 5.06,0.13609a78.7,71.40029 0 0 1 43.14,14.51594a26.1,23.67913 0 0 0 31.74,0a78.7,71.40029 0 0 1 43.13,-14.51594c1.68,-0.09072 3.38,-0.13609 5.06,-0.13609a78.45,71.17348 0 0 1 78.86,74.92948a78.9,71.58174 0 0 1 -12.53,35.75458a46,41.73333 0 0 0 -7.35,22.68116l0,122.66878a29.5,26.76377 0 0 1 -29.47,26.73655l-187.14,0z" class="cls-2"/>
  <path fill="#c88b4b" d="m472.06985,162.70146a72.17,65.47597 0 0 1 60.44,100.91301a53,48.08406 0 0 0 -8.51,26.14684l0,122.62342a22.5,20.41304 0 0 1 -22.47,20.38583l-187.1,0a22.5,20.41304 0 0 1 -22.43,-20.38583l0,-122.62342a53,48.08406 0 0 0 -8.47,-26.14684a72.83,66.07475 0 0 1 8.32,-80.95359a71.38,64.75924 0 0 1 52.08,-19.95942c1.54,0 3.1,0.04536 4.64,0.12701a71.68,65.03142 0 0 1 39.31,13.26394a33.13,30.05707 0 0 0 40.24,0a71.68,65.03142 0 0 1 39.31,-13.26394c1.54,-0.08165 3.1,-0.12701 4.64,-0.12701m0,-12.70145c-1.82,0 -3.64,0.04536 -5.48,0.15423a85.65,77.70565 0 0 0 -47,15.84052a19.13,17.35562 0 0 1 -23.26,0a85.65,77.70565 0 0 0 -46.92,-15.84052c-1.83,-0.10887 -3.67,-0.15423 -5.48,-0.15423c-49.11,0 -87.93,36.28985 -85.85,81.5433a85.61,77.66936 0 0 0 13.65,39.01159a39.13,35.50055 0 0 1 6.27,19.20641l0,122.62342a36.47,33.08727 0 0 0 36.47,33.08727l187.1,0a36.47,33.08727 0 0 0 36.43,-33.08727l0,-122.62342a39.13,35.50055 0 0 1 6.23,-19.25177a85.61,77.66936 0 0 0 13.65,-39.01159c2.12,-45.20809 -36.7,-81.49794 -85.81,-81.49794z" class="cls-3"/>
  <path fill="#e9a058" d="m505.11985,369.20887l-14.66,13.29116a5.7,5.1713 0 0 1 -8.07,0l-0.66,-0.58971a5.47,4.96264 0 0 1 -0.45,-0.4627l-1.48,-1.70562a5.7,5.1713 0 0 1 0.45,-6.86785l10.93,-9.9162a5.71,5.18038 0 0 0 1.67,-3.62899l0,-8.48275a5.71,5.18038 0 0 0 -5.71,-5.18038l-7.55,0a5.71,5.18038 0 0 1 -5.71,-5.18038l0,-9.71661a5.71,5.18038 0 0 1 1.67,-3.62899l23.17,-21.09348a5.73,5.19852 0 0 0 1.68,-3.62899l0,-10.7418a5.71,5.18038 0 0 0 -5.71,-5.18038l-8.26,0a5.71,5.18038 0 0 1 -5.71,-5.18038l0,-0.96168a5.71,5.18038 0 0 1 1.67,-3.62899l23.61,-21.42916a5.7,5.1713 0 0 0 1.67,-3.62899l0,-8.44646a5.71,5.18038 0 0 0 -5.74,-5.21667l-10,0a5.7,5.1713 0 0 0 -4,1.5151l-8.15,7.39406a5.72,5.18945 0 0 1 -8.08,0l-4.95,-4.53623a5.7,5.1713 0 0 1 0,-7.32148l25.4,-23.04406a5.72,5.18945 0 0 0 1.67,-3.62899l0,-11.7942a5.71,5.18038 0 0 0 -5.82,-5.18038l-15.57,0a5.67,5.14409 0 0 0 -4,1.52417l-43.79,39.69203a5.7,5.1713 0 0 1 -8.07,0l-1.84,-1.67841a5.7,5.1713 0 0 1 0,-7.32148l7.92,-7.19446a5.7,5.1713 0 0 0 1.67,-3.62899l0,-13.6087a5.71,5.18038 0 0 0 -5.71,-5.18038l-17.3,0a5.72,5.18945 0 0 0 -4,1.5151l-23.2,21.01183a5.72,5.18945 0 0 1 -8.08,0l0,0a5.72,5.18945 0 0 1 0,-7.33055l5.6,-5.08058a5.71,5.18038 0 0 0 1.67,-3.62899l0,-6.94951a5.7,5.1713 0 0 0 -5.71,-5.18038l-11.82,0a5.71,5.18038 0 0 0 -4,1.5151l-20.5,18.55319l0,0l-30,27.21739a5.72,5.18945 0 0 0 -1.68,3.62899l0,0.81652a5.71,5.18038 0 0 0 5.71,5.18038l1.53,0a5.71,5.18038 0 0 0 4,-1.5151l14.71,-13.26394a5.7,5.1713 0 0 1 8.07,0l0.66,0.58971a5.47,4.96264 0 0 1 0.45,0.4627l1.48,1.70562a5.7,5.1713 0 0 1 -0.45,6.86785l-10.93,9.9162a5.71,5.18038 0 0 0 -1.67,3.62899l0,8.48275a5.71,5.18038 0 0 0 5.71,5.18038l7.55,0a5.71,5.18038 0 0 1 5.71,5.18038l0,9.68032a5.71,5.18038 0 0 1 -1.67,3.62899l-23.17,21.12977a5.73,5.19852 0 0 0 -1.68,3.62899l0,10.7418a5.71,5.18038 0 0 0 5.71,5.18038l8.26,0a5.71,5.18038 0 0 1 5.71,5.18038l0,0.96168a5.71,5.18038 0 0 1 -1.67,3.62899l-23.61,21.42916a5.7,5.1713 0 0 0 -1.67,3.62899l0,8.44646a5.71,5.18038 0 0 0 5.74,5.21667l10,0a5.7,5.1713 0 0 0 4,-1.5151l8.15,-7.39406a5.72,5.18945 0 0 1 8.08,0l4.95,4.53623a5.7,5.1713 0 0 1 0,7.32148l-25.4,23.04406a5.72,5.18945 0 0 0 -1.67,3.62899l0,11.7942a5.71,5.18038 0 0 0 5.82,5.18038l15.57,0a5.67,5.14409 0 0 0 4,-1.52417l43.76,-39.69203a5.7,5.1713 0 0 1 8.07,0l1.84,1.67841a5.7,5.1713 0 0 1 0,7.32148l-7.92,7.19446a5.7,5.1713 0 0 0 -1.67,3.62899l0,13.6087a5.71,5.18038 0 0 0 5.71,5.18038l17.3,0a5.72,5.18945 0 0 0 4,-1.5151l23.16,-21.0209a5.72,5.18945 0 0 1 8.08,0l0,0a5.72,5.18945 0 0 1 0,7.33055l-5.6,5.08058a5.71,5.18038 0 0 0 -1.67,3.62899l0,6.95858a5.7,5.1713 0 0 0 5.71,5.18038l11.82,0a5.71,5.18038 0 0 0 4,-1.5151l20.46,-18.56226l0,0l30,-27.21739a5.72,5.18945 0 0 0 1.68,-3.62899l0,-0.81652a5.71,5.18038 0 0 0 -5.71,-5.18038l-1.53,0a5.71,5.18038 0 0 0 -3.94,1.49696z" class="cls-4"/>
  <g id="svg_9">
   <line stroke-width="20" id="svg_3" y2="300.58217" x2="391.58217" y1="245" x1="336" stroke="#000" fill="none"/>
   <line id="svg_4" y2="287.06157" x2="390.93844" y1="342" x1="336.00001" stroke-width="20" stroke="#000" fill="none"/>
  </g>
  <line id="svg_10" y2="343" x2="481" y1="343" x1="406" stroke-width="20" stroke="#000" fill="none"/>
 </g>
</svg>